<mxfile host="app.diagrams.net" modified="2022-03-20T01:46:55.769Z" agent="5.0 (X11)" etag="adIyNv4i4F3VyIdCdH03" version="17.1.3" type="github">
  <diagram id="Wld0CBpH5eh25WTUf04x" name="Page-1">
    <mxGraphModel dx="1422" dy="760" grid="1" gridSize="10" guides="1" tooltips="1" connect="1" arrows="1" fold="1" page="1" pageScale="1" pageWidth="850" pageHeight="1100" math="0" shadow="0">
      <root>
        <mxCell id="0" />
        <mxCell id="1" parent="0" />
        <mxCell id="rft7p5y9_rTwgYQMziia-1" value="&lt;font style=&quot;font-size: 28px&quot;&gt;8&lt;/font&gt;" style="ellipse;whiteSpace=wrap;html=1;aspect=fixed;fillColor=#f8cecc;strokeColor=#b85450;" vertex="1" parent="1">
          <mxGeometry width="80" height="80" as="geometry" />
        </mxCell>
        <mxCell id="rft7p5y9_rTwgYQMziia-2" value="&lt;font style=&quot;font-size: 28px&quot;&gt;11&lt;/font&gt;" style="ellipse;whiteSpace=wrap;html=1;aspect=fixed;" vertex="1" parent="1">
          <mxGeometry x="120" y="80" width="80" height="80" as="geometry" />
        </mxCell>
        <mxCell id="rft7p5y9_rTwgYQMziia-4" value="&lt;font style=&quot;font-size: 28px&quot;&gt;15&lt;/font&gt;" style="ellipse;whiteSpace=wrap;html=1;aspect=fixed;" vertex="1" parent="1">
          <mxGeometry x="240" y="160" width="80" height="80" as="geometry" />
        </mxCell>
        <mxCell id="rft7p5y9_rTwgYQMziia-6" value="&lt;font style=&quot;font-size: 28px&quot;&gt;21&lt;/font&gt;" style="ellipse;whiteSpace=wrap;html=1;aspect=fixed;" vertex="1" parent="1">
          <mxGeometry x="360" y="240" width="80" height="80" as="geometry" />
        </mxCell>
        <mxCell id="rft7p5y9_rTwgYQMziia-8" value="&lt;font style=&quot;font-size: 28px&quot;&gt;38&lt;/font&gt;" style="ellipse;whiteSpace=wrap;html=1;aspect=fixed;" vertex="1" parent="1">
          <mxGeometry x="480" y="320" width="80" height="80" as="geometry" />
        </mxCell>
        <mxCell id="rft7p5y9_rTwgYQMziia-10" value="&lt;font style=&quot;font-size: 28px&quot;&gt;42&lt;/font&gt;" style="ellipse;whiteSpace=wrap;html=1;aspect=fixed;" vertex="1" parent="1">
          <mxGeometry x="600" y="400" width="80" height="80" as="geometry" />
        </mxCell>
        <mxCell id="rft7p5y9_rTwgYQMziia-12" value="&lt;font style=&quot;font-size: 28px&quot;&gt;69&lt;/font&gt;" style="ellipse;whiteSpace=wrap;html=1;aspect=fixed;fillColor=#d5e8d4;strokeColor=#82b366;" vertex="1" parent="1">
          <mxGeometry x="720" y="480" width="80" height="80" as="geometry" />
        </mxCell>
        <mxCell id="rft7p5y9_rTwgYQMziia-15" value="" style="endArrow=none;html=1;rounded=0;fontSize=28;strokeWidth=3;exitX=0;exitY=0;exitDx=0;exitDy=0;entryX=1;entryY=0.5;entryDx=0;entryDy=0;" edge="1" parent="1" source="rft7p5y9_rTwgYQMziia-2" target="rft7p5y9_rTwgYQMziia-1">
          <mxGeometry width="50" height="50" relative="1" as="geometry">
            <mxPoint x="70" y="110" as="sourcePoint" />
            <mxPoint x="100" y="60" as="targetPoint" />
          </mxGeometry>
        </mxCell>
        <mxCell id="rft7p5y9_rTwgYQMziia-16" value="" style="endArrow=none;html=1;rounded=0;fontSize=28;strokeWidth=3;exitX=0;exitY=0;exitDx=0;exitDy=0;entryX=1;entryY=0.5;entryDx=0;entryDy=0;" edge="1" parent="1">
          <mxGeometry width="50" height="50" relative="1" as="geometry">
            <mxPoint x="251.71572875253787" y="171.71572875253787" as="sourcePoint" />
            <mxPoint x="200" y="120" as="targetPoint" />
          </mxGeometry>
        </mxCell>
        <mxCell id="rft7p5y9_rTwgYQMziia-17" value="" style="endArrow=none;html=1;rounded=0;fontSize=28;strokeWidth=3;exitX=0;exitY=0;exitDx=0;exitDy=0;entryX=1;entryY=0.5;entryDx=0;entryDy=0;" edge="1" parent="1">
          <mxGeometry width="50" height="50" relative="1" as="geometry">
            <mxPoint x="371.71572875253787" y="251.71572875253787" as="sourcePoint" />
            <mxPoint x="320" y="200" as="targetPoint" />
          </mxGeometry>
        </mxCell>
        <mxCell id="rft7p5y9_rTwgYQMziia-18" value="" style="endArrow=none;html=1;rounded=0;fontSize=28;strokeWidth=3;exitX=0;exitY=0;exitDx=0;exitDy=0;entryX=1;entryY=0.5;entryDx=0;entryDy=0;" edge="1" parent="1">
          <mxGeometry width="50" height="50" relative="1" as="geometry">
            <mxPoint x="491.71572875253787" y="331.71572875253787" as="sourcePoint" />
            <mxPoint x="440" y="280" as="targetPoint" />
          </mxGeometry>
        </mxCell>
        <mxCell id="rft7p5y9_rTwgYQMziia-19" value="" style="endArrow=none;html=1;rounded=0;fontSize=28;strokeWidth=3;exitX=0;exitY=0;exitDx=0;exitDy=0;entryX=1;entryY=0.5;entryDx=0;entryDy=0;" edge="1" parent="1">
          <mxGeometry width="50" height="50" relative="1" as="geometry">
            <mxPoint x="611.7157287525379" y="411.71572875253787" as="sourcePoint" />
            <mxPoint x="560" y="360" as="targetPoint" />
          </mxGeometry>
        </mxCell>
        <mxCell id="rft7p5y9_rTwgYQMziia-20" value="" style="endArrow=none;html=1;rounded=0;fontSize=28;strokeWidth=3;exitX=0;exitY=0;exitDx=0;exitDy=0;entryX=1;entryY=0.5;entryDx=0;entryDy=0;" edge="1" parent="1">
          <mxGeometry width="50" height="50" relative="1" as="geometry">
            <mxPoint x="731.7157287525379" y="491.71572875253787" as="sourcePoint" />
            <mxPoint x="680" y="440" as="targetPoint" />
          </mxGeometry>
        </mxCell>
        <mxCell id="rft7p5y9_rTwgYQMziia-21" value="Depth: 7" style="text;html=1;align=center;verticalAlign=middle;resizable=0;points=[];autosize=1;strokeColor=none;fillColor=none;fontSize=28;" vertex="1" parent="1">
          <mxGeometry x="120" y="320" width="120" height="40" as="geometry" />
        </mxCell>
        <mxCell id="rft7p5y9_rTwgYQMziia-22" value="&lt;div&gt;Root&lt;/div&gt;" style="text;html=1;align=center;verticalAlign=middle;resizable=0;points=[];autosize=1;strokeColor=none;fillColor=none;fontSize=28;" vertex="1" parent="1">
          <mxGeometry x="5" y="90" width="70" height="40" as="geometry" />
        </mxCell>
        <mxCell id="rft7p5y9_rTwgYQMziia-23" value="Leaf" style="text;html=1;align=center;verticalAlign=middle;resizable=0;points=[];autosize=1;strokeColor=none;fillColor=none;fontSize=28;" vertex="1" parent="1">
          <mxGeometry x="725" y="440" width="70" height="40" as="geometry" />
        </mxCell>
      </root>
    </mxGraphModel>
  </diagram>
</mxfile>
